<?xml version="1.0" encoding="utf-8"?>
<!-- Generator: Adobe Illustrator 16.0.0, SVG Export Plug-In . SVG Version: 6.00 Build 0)  -->
<!DOCTYPE svg PUBLIC "-//W3C//DTD SVG 1.1//EN" "http://www.w3.org/Graphics/SVG/1.1/DTD/svg11.dtd">
<svg version="1.1" id="bigplay-gradient.fw-Page_x25_201"
	 xmlns="http://www.w3.org/2000/svg" xmlns:xlink="http://www.w3.org/1999/xlink" x="0px" y="0px" width="60px" height="120px"
	 viewBox="20 40 60 120" enable-background="new 20 40 60 120" xml:space="preserve">
<filter  height="300%" width="300%" id="filter2" y="-100%" x="-100%">
	<!--  Glow  -->
	
		<feColorMatrix  type="matrix" values="0 0 0 0.8667 0  0 0 0 0.8667 0  0 0 0 0.8667 0  0 0 0 0.251 0" in="SourceGraphic" result="out">
		</feColorMatrix>
	<feMorphology  radius="3" in="out" result="out" operator="dilate"></feMorphology>
	<feGaussianBlur  stdDeviation="1.5" in="out" result="out"></feGaussianBlur>
	<feBlend  mode="normal" in2="out" in="SourceGraphic" result="Glow2"></feBlend>
</filter>
<filter  height="300%" width="300%" id="filter1" y="-100%" x="-100%">
	<!--  Glow  -->
	<feColorMatrix  type="matrix" values="0 0 0 0 0  0 0 0 0 0  0 0 0 0 0  0 0 0 0.251 0" in="SourceGraphic" result="out">
		</feColorMatrix>
	<feMorphology  radius="3" in="out" result="out" operator="dilate"></feMorphology>
	<feGaussianBlur  stdDeviation="1.5" in="out" result="out"></feGaussianBlur>
	<feBlend  mode="normal" in2="out" in="SourceGraphic" result="Glow1"></feBlend>
</filter>
<path fill="none" d="z"/>
<g id="Background">
</g>
<g id="dark_x25_20shadow">
	
		<radialGradient id="SVGID_1_" cx="31.8389" cy="123.5078" r="0.3157" gradientTransform="matrix(95 0 0 -90 -2974.6882 11184)" gradientUnits="userSpaceOnUse">
		<stop  offset="0.7" style="stop-color:#222222;stop-opacity:0"/>
		<stop  offset="0.702" style="stop-color:#222222;stop-opacity:0.0118"/>
		<stop  offset="0.85" style="stop-color:#333333"/>
		<stop  offset="1" style="stop-color:#333333;stop-opacity:0"/>
	</radialGradient>
	<path fill="url(#SVGID_1_)" d="M31.333,68.421c0-9.767,8.357-17.685,18.667-17.685s18.667,7.917,18.667,17.685
		c0,9.767-8.357,17.684-18.667,17.684S31.333,78.188,31.333,68.421z M20,68.421c0,15.696,13.432,28.421,30,28.421
		c16.568,0,30-12.725,30-28.421C80,52.725,66.568,40,50,40C33.431,40,20,52.725,20,68.421z"/>
	
		<radialGradient id="SVGID_2_" cx="31.8389" cy="123.916" r="0.3157" gradientTransform="matrix(95 0 0 -90 -2974.6882 11284)" gradientUnits="userSpaceOnUse">
		<stop  offset="0.7" style="stop-color:#BBBBBB;stop-opacity:0"/>
		<stop  offset="0.702" style="stop-color:#BBBBBB;stop-opacity:0.0118"/>
		<stop  offset="0.85" style="stop-color:#BBBBBB"/>
		<stop  offset="1" style="stop-color:#BBBBBB;stop-opacity:0"/>
	</radialGradient>
	<path fill="url(#SVGID_2_)" d="M31.333,131.579c0-9.768,8.357-17.685,18.667-17.685s18.667,7.917,18.667,17.685
		c0,9.767-8.357,17.685-18.667,17.685S31.333,141.346,31.333,131.579z M20,131.579C20,147.275,33.431,160,50,160
		c16.568,0,30-12.725,30-28.421c0-15.697-13.432-28.422-30-28.422C33.431,103.157,20,115.882,20,131.579z"/>
</g>
<g id="dark">
	<g id="Polygon" filter="url(#filter1)">
		<polygon fill="#FFFFFF" points="65,68.105 42.5,80.412 42.5,55.799 		"/>
	</g>
	<path id="Ellipse" fill="none" stroke="#FFFFFF" stroke-width="3.2444" d="M25.333,68.737c0-13.081,11.192-23.684,25-23.684
		c13.807,0,25,10.604,25,23.684s-11.193,23.685-25,23.685C36.526,92.421,25.333,81.817,25.333,68.737z"/>
</g>
<g id="light">
	<g id="Polygon2" filter="url(#filter2)">
		<polygon fill="#FFFFFF" points="65,131.264 42.5,143.569 42.5,118.957 		"/>
	</g>
	<path id="Ellipse2" fill="none" stroke="#FFFFFF" stroke-width="3.2444" d="M25.333,131.895c0-13.081,11.192-23.684,25-23.684
		c13.807,0,25,10.603,25,23.684s-11.193,23.685-25,23.685C36.526,155.579,25.333,144.976,25.333,131.895z"/>
</g>
<path fill="none" d="z"/>
</svg>
